<mxfile host="app.diagrams.net" agent="Mozilla/5.0 (Windows NT 10.0; Win64; x64; rv:140.0) Gecko/20100101 Firefox/140.0" version="28.0.6">
  <diagram name="Page-1" id="G4euFhGhEcwy53bfMFRP">
    <mxGraphModel dx="1293" dy="1818" grid="1" gridSize="10" guides="1" tooltips="1" connect="1" arrows="1" fold="1" page="1" pageScale="1" pageWidth="850" pageHeight="1100" math="0" shadow="0">
      <root>
        <mxCell id="0" />
        <mxCell id="1" parent="0" />
        <mxCell id="ktPDLA2ecL1KdA7Fj5Hu-1" value="&lt;div&gt;user&lt;/div&gt;&lt;div&gt;&lt;br&gt;&lt;/div&gt;&lt;table style=&quot;color: rgba(255, 255, 255, 0.6); font-size: 13px; width: 468px; text-align: left; margin-bottom: 16px; border: 1px solid var(--vscode-chat-requestBorder); border-collapse: collapse; padding: 4px 6px; font-family: &amp;quot;Segoe WPC&amp;quot;, &amp;quot;Segoe UI&amp;quot;, sans-serif; font-style: normal; font-variant-ligatures: normal; font-variant-caps: normal; font-weight: 400; letter-spacing: normal; orphans: 2; text-transform: none; widows: 2; word-spacing: 0px; -webkit-text-stroke-width: 0px; white-space: normal; background-color: rgb(36, 27, 47); text-decoration-thickness: initial; text-decoration-style: initial; text-decoration-color: initial;&quot;&gt;&lt;thead&gt;&lt;tr&gt;&lt;th style=&quot;border: 1px solid var(--vscode-chat-requestBorder); border-collapse: collapse; padding: 4px 6px;&quot;&gt;Field&lt;/th&gt;&lt;th style=&quot;border: 1px solid var(--vscode-chat-requestBorder); border-collapse: collapse; padding: 4px 6px;&quot;&gt;Type&lt;/th&gt;&lt;th style=&quot;border: 1px solid var(--vscode-chat-requestBorder); border-collapse: collapse; padding: 4px 6px;&quot;&gt;&lt;br&gt;&lt;/th&gt;&lt;/tr&gt;&lt;/thead&gt;&lt;tbody&gt;&lt;tr&gt;&lt;td style=&quot;border: 1px solid var(--vscode-chat-requestBorder); border-collapse: collapse; padding: 4px 6px;&quot;&gt;id&lt;/td&gt;&lt;td style=&quot;border: 1px solid var(--vscode-chat-requestBorder); border-collapse: collapse; padding: 4px 6px;&quot;&gt;(PK)&lt;/td&gt;&lt;td style=&quot;border: 1px solid var(--vscode-chat-requestBorder); border-collapse: collapse; padding: 4px 6px;&quot;&gt;&lt;br&gt;&lt;/td&gt;&lt;/tr&gt;&lt;tr&gt;&lt;td style=&quot;border: 1px solid var(--vscode-chat-requestBorder); border-collapse: collapse; padding: 4px 6px;&quot;&gt;email&lt;/td&gt;&lt;td style=&quot;border: 1px solid var(--vscode-chat-requestBorder); border-collapse: collapse; padding: 4px 6px;&quot;&gt;String&lt;/td&gt;&lt;td style=&quot;border: 1px solid var(--vscode-chat-requestBorder); border-collapse: collapse; padding: 4px 6px;&quot;&gt;&lt;br&gt;&lt;/td&gt;&lt;/tr&gt;&lt;tr&gt;&lt;td style=&quot;border: 1px solid var(--vscode-chat-requestBorder); border-collapse: collapse; padding: 4px 6px;&quot;&gt;password&lt;/td&gt;&lt;td style=&quot;border: 1px solid var(--vscode-chat-requestBorder); border-collapse: collapse; padding: 4px 6px;&quot;&gt;String&lt;/td&gt;&lt;td style=&quot;border: 1px solid var(--vscode-chat-requestBorder); border-collapse: collapse; padding: 4px 6px;&quot;&gt;&lt;br&gt;&lt;/td&gt;&lt;/tr&gt;&lt;tr&gt;&lt;td style=&quot;border: 1px solid var(--vscode-chat-requestBorder); border-collapse: collapse; padding: 4px 6px;&quot;&gt;name&lt;/td&gt;&lt;td style=&quot;border: 1px solid var(--vscode-chat-requestBorder); border-collapse: collapse; padding: 4px 6px;&quot;&gt;String&lt;/td&gt;&lt;td style=&quot;border: 1px solid var(--vscode-chat-requestBorder); border-collapse: collapse; padding: 4px 6px;&quot;&gt;&lt;br&gt;&lt;/td&gt;&lt;/tr&gt;&lt;tr&gt;&lt;td style=&quot;border: 1px solid var(--vscode-chat-requestBorder); border-collapse: collapse; padding: 4px 6px;&quot;&gt;userType&lt;/td&gt;&lt;td style=&quot;border: 1px solid var(--vscode-chat-requestBorder); border-collapse: collapse; padding: 4px 6px;&quot;&gt;String&lt;/td&gt;&lt;td style=&quot;border: 1px solid var(--vscode-chat-requestBorder); border-collapse: collapse; padding: 4px 6px;&quot;&gt;&lt;br&gt;&lt;/td&gt;&lt;/tr&gt;&lt;tr&gt;&lt;td style=&quot;border: 1px solid var(--vscode-chat-requestBorder); border-collapse: collapse; padding: 4px 6px;&quot;&gt;userRole&lt;/td&gt;&lt;td style=&quot;border: 1px solid var(--vscode-chat-requestBorder); border-collapse: collapse; padding: 4px 6px;&quot;&gt;String&lt;/td&gt;&lt;/tr&gt;&lt;/tbody&gt;&lt;/table&gt;" style="whiteSpace=wrap;html=1;aspect=fixed;" vertex="1" parent="1">
          <mxGeometry x="70" y="-20" width="450" height="450" as="geometry" />
        </mxCell>
      </root>
    </mxGraphModel>
  </diagram>
</mxfile>
